<?xml version="1.0" standalone="no"?>
<!DOCTYPE svg PUBLIC "-//W3C//DTD SVG 20010904//EN"
 "http://www.w3.org/TR/2001/REC-SVG-20010904/DTD/svg10.dtd">
<svg version="1.0" xmlns="http://www.w3.org/2000/svg"
 width="300.000000pt" height="300.000000pt" viewBox="0 0 300.000000 300.000000"
 preserveAspectRatio="xMidYMid meet">
<metadata>
Created by potrace 1.14, written by Peter Selinger 2001-2017
</metadata>
<g transform="translate(0.000000,300.000000) scale(0.100000,-0.100000)"
fill="#000000" stroke="none">
<path d="M1825 2823 c-42 -11 -111 -85 -99 -105 9 -14 -3 -9 -54 23 -42 26
-53 29 -72 19 -36 -19 -40 -48 -20 -125 2 -5 -3 -25 -10 -43 -11 -30 -15 -32
-45 -28 -36 6 -55 -8 -58 -43 -2 -32 -12 -25 -24 17 -22 76 -74 216 -85 229
-12 15 -58 18 -58 4 0 -5 -9 -13 -20 -16 -11 -4 -20 -15 -20 -26 0 -18 -3 -17
-25 10 -87 103 -236 104 -294 1 -11 -21 -23 -53 -25 -71 -3 -19 -5 -36 -5 -39
-1 -3 -21 -6 -45 -6 -51 -1 -93 -27 -103 -64 -9 -30 -6 -45 13 -85 14 -28 13
-31 -8 -47 -37 -28 -55 -31 -76 -10 -16 16 -32 19 -89 18 -59 -2 -75 -6 -110
-31 -49 -35 -82 -95 -87 -158 -4 -50 -13 -70 -25 -62 -15 9 -74 -39 -81 -66
-10 -35 11 -92 37 -103 17 -8 20 -16 16 -42 -3 -20 1 -40 11 -56 15 -23 15
-26 -4 -43 -11 -10 -20 -22 -20 -26 0 -16 118 -125 206 -190 50 -37 91 -73 92
-81 14 -158 25 -172 328 -469 190 -186 202 -200 202 -243 0 -20 5 -43 11 -50
10 -11 6 -15 -18 -21 -37 -8 -46 -19 -61 -73 -15 -56 3 -86 68 -114 57 -25 60
-27 45 -36 -13 -8 -20 -39 -30 -117 -3 -27 -12 -59 -19 -70 -20 -28 -17 -34
15 -30 24 3 30 -1 35 -20 11 -42 55 -83 112 -104 30 -12 68 -31 84 -43 41 -30
112 -28 184 6 30 14 60 26 66 26 19 0 94 42 113 63 9 11 17 26 17 34 0 7 8 13
18 14 9 0 34 21 56 45 l38 44 -41 37 c-41 36 -87 100 -79 108 2 2 19 7 38 10
19 3 43 8 53 11 21 7 50 61 43 80 -3 8 -1 14 5 14 6 0 8 4 5 8 -3 5 -7 21 -10
36 -6 32 -33 66 -52 66 -13 0 -37 34 -30 41 3 2 6 25 9 52 6 58 16 70 267 317
177 175 218 225 233 291 10 39 244 189 350 223 17 6 17 7 0 30 -10 14 -45 41
-77 60 -50 29 -56 37 -40 42 26 10 63 51 75 82 19 51 -21 126 -83 155 -33 16
-33 16 -31 79 1 35 5 73 8 85 4 12 6 25 5 29 -1 4 4 10 10 14 6 4 12 23 13 41
l2 34 -78 1 c-43 1 -80 3 -82 5 -1 2 -6 21 -9 43 -10 60 -8 59 -81 40 -50 -12
-101 -51 -125 -94 -5 -8 -12 -11 -16 -7 -5 4 -3 16 4 25 36 51 71 140 66 167
-3 17 -9 32 -15 33 -5 2 -9 10 -9 17 0 16 -41 25 -98 21 l-43 -2 -32 68 c-17
37 -38 68 -45 68 -7 0 -11 4 -7 10 3 5 -12 21 -34 36 -40 26 -105 38 -146 27z
m-597 -2108 c34 -11 26 -26 -10 -20 -50 9 -68 15 -68 26 0 9 40 6 78 -6z m606
-7 c-6 -10 -4 -10 8 0 13 11 16 9 16 -13 0 -14 -6 -25 -13 -25 -8 0 -15 -4
-17 -9 -1 -5 -20 -12 -41 -15 -33 -5 -38 -4 -35 11 3 13 12 17 33 16 22 -2 26
0 15 7 -11 7 -11 10 -2 10 7 0 11 4 8 9 -4 5 0 12 6 14 22 9 29 7 22 -5z m46
-18 c0 -5 -2 -10 -4 -10 -3 0 -8 5 -11 10 -3 6 -1 10 4 10 6 0 11 -4 11 -10z"/>
</g>
</svg>
