<?xml version="1.0" standalone="no"?>
<!DOCTYPE svg PUBLIC "-//W3C//DTD SVG 20010904//EN"
 "http://www.w3.org/TR/2001/REC-SVG-20010904/DTD/svg10.dtd">
<svg version="1.0" xmlns="http://www.w3.org/2000/svg"
 width="260.000000pt" height="260.000000pt" viewBox="0 0 260.000000 260.000000"
 preserveAspectRatio="xMidYMid meet">
<metadata>
Created by potrace 1.14, written by Peter Selinger 2001-2017
</metadata>
<g transform="translate(0.000000,260.000000) scale(0.100000,-0.100000)"
fill="#000000" stroke="none">
<path d="M883 2435 c-39 -16 -78 -69 -90 -120 -8 -35 -12 -40 -38 -41 -83 -3
-116 -52 -84 -123 11 -26 14 -41 7 -41 -7 0 -22 -10 -35 -22 -13 -12 -23 -17
-23 -12 0 19 -55 41 -96 38 -105 -7 -170 -76 -173 -186 -1 -21 -8 -29 -36 -38
-60 -20 -79 -95 -34 -134 16 -14 24 -33 25 -55 1 -18 6 -36 13 -40 8 -5 7 -13
-4 -27 -8 -10 -15 -25 -15 -32 0 -18 105 -117 180 -170 36 -25 67 -47 68 -48
2 -2 5 -20 7 -41 8 -102 25 -126 266 -365 165 -163 189 -191 189 -218 0 -17 4
-39 10 -49 8 -16 5 -20 -19 -24 -30 -6 -51 -45 -51 -92 0 -27 36 -61 73 -70
30 -8 31 -12 17 -50 -6 -15 -12 -46 -13 -69 -2 -22 -9 -51 -15 -63 -18 -32
-15 -41 13 -35 23 4 30 -4 26 -30 -1 -13 79 -78 106 -84 16 -4 41 -16 57 -27
35 -25 124 -27 158 -5 13 8 46 23 75 32 56 18 103 56 103 81 0 9 6 15 13 13 7
-2 29 16 50 39 l38 41 -30 21 c-53 38 -91 105 -61 107 40 1 81 18 90 35 6 10
11 40 12 66 1 42 -3 51 -34 78 -23 20 -34 38 -33 55 1 14 3 36 4 50 2 27 73
112 179 213 200 191 252 252 252 301 0 20 214 160 268 177 62 18 57 36 -26 89
l-52 34 31 20 c77 48 64 147 -23 189 -29 14 -31 18 -32 75 -1 33 1 59 3 56 2
-2 12 20 22 49 11 33 14 56 8 62 -5 5 -38 9 -73 8 l-65 0 -6 38 c-4 22 -11 41
-16 45 -22 13 -109 -28 -144 -69 -43 -50 -45 -38 -3 38 53 99 32 168 -51 165
-66 -3 -70 -2 -82 40 -15 48 -85 126 -123 136 -66 16 -154 -24 -172 -78 -5
-18 -7 -18 -35 2 -63 46 -106 26 -99 -45 1 -11 5 -24 9 -28 4 -4 3 -24 -3 -43
-10 -31 -15 -35 -41 -32 -38 3 -55 -7 -55 -33 0 -21 -17 -27 -17 -6 0 20 -63
200 -75 214 -12 15 -48 18 -48 4 0 -5 -9 -13 -21 -16 -13 -5 -18 -12 -14 -22
3 -9 -14 2 -38 24 -40 37 -57 45 -122 57 -12 2 -35 -2 -52 -9z m181 -1821 c7
-17 -1 -17 -43 -3 -20 7 -28 14 -21 19 17 10 58 0 64 -16z m556 -4 c13 -8 13
-11 1 -22 -12 -11 -13 -10 -6 2 4 8 -2 5 -14 -7 -22 -23 -37 -31 -26 -13 3 5
-7 3 -21 -5 -36 -19 -53 -7 -23 16 13 9 27 15 31 12 5 -2 8 -1 7 4 -4 25 22
32 51 13z"/>
</g>
</svg>
