<svg width="16" height="17" viewBox="0 0 16 17" fill="none" xmlns="http://www.w3.org/2000/svg">
<path d="M8 9.83325H8.66667C9.4 9.83325 10 9.23325 10 8.49992V1.83325H4C3 1.83325 2.12667 2.38658 1.67334 3.19991" stroke="#2E3514" stroke-linecap="round" stroke-linejoin="round"/>
<path d="M1.33334 11.8333C1.33334 12.9399 2.22668 13.8333 3.33334 13.8333H4.00001C4.00001 13.0999 4.60001 12.4999 5.33334 12.4999C6.06668 12.4999 6.66668 13.0999 6.66668 13.8333H9.33334C9.33334 13.0999 9.93334 12.4999 10.6667 12.4999C11.4 12.4999 12 13.0999 12 13.8333H12.6667C13.7733 13.8333 14.6667 12.9399 14.6667 11.8333V9.83325H12.6667C12.3 9.83325 12 9.53325 12 9.16659V7.16659C12 6.79992 12.3 6.49992 12.6667 6.49992H13.5267L12.3867 4.50659C12.1467 4.09326 11.7067 3.83325 11.2267 3.83325H10V8.49992C10 9.23325 9.40001 9.83325 8.66668 9.83325H8.00001" stroke="#2E3514" stroke-linecap="round" stroke-linejoin="round"/>
<path d="M5.33333 15.1667C6.06971 15.1667 6.66667 14.5697 6.66667 13.8333C6.66667 13.097 6.06971 12.5 5.33333 12.5C4.59695 12.5 4 13.097 4 13.8333C4 14.5697 4.59695 15.1667 5.33333 15.1667Z" stroke="#2E3514" stroke-linecap="round" stroke-linejoin="round"/>
<path d="M10.6667 15.1667C11.4031 15.1667 12 14.5697 12 13.8333C12 13.097 11.4031 12.5 10.6667 12.5C9.9303 12.5 9.33334 13.097 9.33334 13.8333C9.33334 14.5697 9.9303 15.1667 10.6667 15.1667Z" stroke="#2E3514" stroke-linecap="round" stroke-linejoin="round"/>
<path d="M14.6667 8.5V9.83333H12.6667C12.3 9.83333 12 9.53333 12 9.16667V7.16667C12 6.8 12.3 6.5 12.6667 6.5H13.5267L14.6667 8.5Z" stroke="#2E3514" stroke-linecap="round" stroke-linejoin="round"/>
<path d="M1.33334 5.83325H5.33334" stroke="#2E3514" stroke-linecap="round" stroke-linejoin="round"/>
<path d="M1.33334 7.83325H4.00001" stroke="#2E3514" stroke-linecap="round" stroke-linejoin="round"/>
<path d="M1.33334 9.83325H2.66668" stroke="#2E3514" stroke-linecap="round" stroke-linejoin="round"/>
</svg>
