<svg width="200" height="65" viewBox="0 0 200 65" fill="none" xmlns="http://www.w3.org/2000/svg">
<path d="M182.848 0C186.16 0 189.053 0.752865 191.528 2.25859C194.038 3.76431 195.972 5.93536 197.332 8.77172C198.726 11.5731 199.423 14.9872 199.423 19.0141C199.423 22.936 198.709 26.3677 197.279 29.3091C195.885 32.2505 193.933 34.5441 191.423 36.1899C188.913 37.8357 186.038 38.6586 182.796 38.6586C179.484 38.6586 176.574 37.9057 174.064 36.4C171.589 34.8943 169.654 32.7232 168.26 29.8869C166.9 27.0505 166.221 23.6364 166.221 19.6444C166.221 15.7226 166.935 12.2909 168.364 9.3495C169.794 6.40808 171.746 4.11448 174.221 2.46869C176.73 0.822898 179.606 0 182.848 0ZM182.639 0.945456C180.373 0.945456 178.404 1.73334 176.73 3.30909C175.057 4.88485 173.75 7.05589 172.809 9.82222C171.903 12.5886 171.449 15.7926 171.449 19.4343C171.449 23.1461 171.955 26.3852 172.966 29.1515C174.011 31.8828 175.406 34.0014 177.149 35.5071C178.926 36.9778 180.879 37.7131 183.005 37.7131C185.271 37.7131 187.24 36.9253 188.913 35.3495C190.587 33.7737 191.876 31.6027 192.783 28.8364C193.724 26.035 194.194 22.831 194.194 19.2242C194.194 15.4774 193.672 12.2384 192.626 9.50708C191.615 6.77576 190.238 4.67475 188.495 3.20404C186.752 1.69832 184.8 0.945456 182.639 0.945456Z" fill="#D17D2F"/>
<path d="M161.922 0.735352V1.78586C160.736 1.82087 159.83 1.99596 159.203 2.31111C158.61 2.62626 158.209 3.134 158 3.83434C157.791 4.53468 157.686 5.53266 157.686 6.82828V38.1859C157.477 38.1859 157.268 38.1859 157.059 38.1859C156.885 38.1859 156.693 38.1859 156.484 38.1859L134.523 4.09696V31.8303C134.523 33.0909 134.627 34.0889 134.837 34.8242C135.081 35.5246 135.534 36.0323 136.196 36.3475C136.893 36.6276 137.922 36.8027 139.281 36.8727V37.9232C138.654 37.8532 137.834 37.8182 136.824 37.8182C135.813 37.7832 134.854 37.7657 133.948 37.7657C133.076 37.7657 132.187 37.7832 131.281 37.8182C130.41 37.8182 129.678 37.8532 129.085 37.9232V36.8727C130.27 36.8027 131.159 36.6276 131.752 36.3475C132.379 36.0323 132.797 35.5246 133.007 34.8242C133.216 34.0889 133.32 33.0909 133.32 31.8303V6.30303C133.32 5.0074 133.216 4.06195 133.007 3.46666C132.797 2.83636 132.379 2.41616 131.752 2.20606C131.159 1.96094 130.27 1.82087 129.085 1.78586V0.735352C129.678 0.770368 130.41 0.805383 131.281 0.840399C132.187 0.875416 133.076 0.892925 133.948 0.892925C134.715 0.892925 135.447 0.875416 136.144 0.840399C136.841 0.805383 137.468 0.770368 138.026 0.735352L156.484 29.3091V6.82828C156.484 5.53266 156.362 4.53468 156.118 3.83434C155.908 3.134 155.455 2.62626 154.758 2.31111C154.096 1.99596 153.085 1.82087 151.725 1.78586V0.735352C152.353 0.770368 153.172 0.805383 154.183 0.840399C155.229 0.875416 156.187 0.892925 157.059 0.892925C157.965 0.892925 158.854 0.875416 159.725 0.840399C160.632 0.805383 161.364 0.770368 161.922 0.735352Z" fill="#D17D2F"/>
<path d="M111.864 0.472656L124.622 33.511C125.145 34.8417 125.738 35.7346 126.4 36.1898C127.062 36.61 127.672 36.8376 128.23 36.8727V37.9232C127.533 37.8531 126.679 37.8181 125.668 37.8181C124.657 37.7831 123.646 37.7656 122.635 37.7656C121.276 37.7656 120.003 37.7831 118.818 37.8181C117.633 37.8181 116.674 37.8531 115.942 37.9232V36.8727C117.72 36.8026 118.853 36.505 119.341 35.9797C119.829 35.4195 119.725 34.2464 119.027 32.4605L109.302 6.35549L110.139 5.67266L101.041 29.4141C100.483 30.8147 100.152 32.0053 100.047 32.9858C99.9425 33.9312 100.03 34.6841 100.308 35.2444C100.622 35.8046 101.128 36.2073 101.825 36.4525C102.557 36.6976 103.463 36.8376 104.544 36.8727V37.9232C103.568 37.8531 102.539 37.8181 101.459 37.8181C100.413 37.7831 99.437 37.7656 98.5307 37.7656C97.6592 37.7656 96.9098 37.7831 96.2823 37.8181C95.6897 37.8181 95.132 37.8531 94.6091 37.9232V36.8727C95.3063 36.6976 96.0209 36.2949 96.7529 35.6646C97.4849 34.9993 98.1473 33.8787 98.7398 32.303L111.027 0.472656C111.167 0.472656 111.306 0.472656 111.446 0.472656C111.585 0.472656 111.725 0.472656 111.864 0.472656ZM118.243 22.7959V23.8464H102.661L103.184 22.7959H118.243Z" fill="#D17D2F"/>
<path d="M63.2659 0.735352C63.9979 0.770368 64.9565 0.805383 66.1417 0.840399C67.3269 0.875416 68.4946 0.892925 69.645 0.892925C71.2833 0.892925 72.8519 0.875416 74.3508 0.840399C75.8497 0.805383 76.9129 0.787876 77.5404 0.787876C80.3639 0.787876 82.6994 1.19057 84.5469 1.99596C86.4293 2.80134 87.8236 3.90437 88.7299 5.30505C89.6711 6.6707 90.1417 8.21144 90.1417 9.92727C90.1417 10.9778 89.9325 12.0983 89.5142 13.2889C89.0959 14.4795 88.3639 15.6 87.3182 16.6505C86.3073 17.701 84.9129 18.5764 83.1351 19.2768C81.3574 19.9421 79.109 20.2747 76.3901 20.2747H71.3704V19.2242H75.8672C78.3421 19.2242 80.2245 18.8391 81.5142 18.0687C82.8389 17.2633 83.7277 16.2128 84.1809 14.9172C84.6689 13.5865 84.9129 12.1158 84.9129 10.505C84.9129 7.73872 84.2506 5.60269 82.926 4.09696C81.6362 2.55622 79.4053 1.78586 76.2332 1.78586C74.6297 1.78586 73.584 2.0835 73.0959 2.67879C72.6079 3.27407 72.3639 4.48215 72.3639 6.30303V32.3556C72.3639 33.6162 72.4685 34.5616 72.6776 35.1919C72.8868 35.8222 73.2877 36.2424 73.8802 36.4525C74.5077 36.6626 75.414 36.8027 76.5992 36.8727V37.9232C75.7975 37.8532 74.7866 37.8182 73.5665 37.8182C72.3813 37.7832 71.1787 37.7657 69.9587 37.7657C68.5992 37.7657 67.3269 37.7832 66.1417 37.8182C64.9565 37.8182 63.9979 37.8532 63.2659 37.9232V36.8727C64.4511 36.8027 65.3399 36.6626 65.9325 36.4525C66.56 36.2424 66.9783 35.8222 67.1874 35.1919C67.3966 34.5616 67.5012 33.6162 67.5012 32.3556V6.30303C67.5012 5.0074 67.3966 4.06195 67.1874 3.46666C66.9783 2.83636 66.56 2.41616 65.9325 2.20606C65.3399 1.96094 64.4511 1.82087 63.2659 1.78586V0.735352ZM71.5796 19.3818C73.4619 19.4518 74.9434 19.5394 76.024 19.6444C77.1047 19.7145 77.9761 19.7845 78.6384 19.8545C79.3356 19.9246 79.9979 20.0121 80.6253 20.1172C82.9609 20.5024 84.6341 21.2202 85.645 22.2707C86.6907 23.2862 87.4576 24.8795 87.9456 27.0505L89.2528 32.4081C89.6014 33.9488 89.95 35.0694 90.2985 35.7697C90.682 36.435 91.2572 36.7502 92.024 36.7152C92.6166 36.6801 93.1047 36.4875 93.4881 36.1374C93.9064 35.7872 94.3421 35.3145 94.7953 34.7192L95.5796 35.297C94.8476 36.3825 94.0807 37.2229 93.2789 37.8182C92.5121 38.3784 91.414 38.6586 89.9848 38.6586C88.6951 38.6586 87.5622 38.2734 86.5861 37.503C85.6101 36.7327 84.8781 35.2269 84.3901 32.9859L83.2397 27.7333C82.926 26.2276 82.56 24.932 82.1417 23.8465C81.7582 22.7259 81.2005 21.8505 80.4685 21.2202C79.7713 20.5899 78.7256 20.2747 77.3312 20.2747H71.6842L71.5796 19.3818Z" fill="#D17D2F"/>
<path d="M58.8807 0.735352V1.78586C57.6955 1.82087 56.7892 1.96094 56.1617 2.20606C55.5691 2.41616 55.1683 2.83636 54.9591 3.46666C54.75 4.06195 54.6454 5.0074 54.6454 6.30303V32.3556C54.6454 33.6162 54.75 34.5616 54.9591 35.1919C55.1683 35.8222 55.5691 36.2424 56.1617 36.4525C56.7892 36.6626 57.6955 36.8027 58.8807 36.8727V37.9232C58.079 37.8532 57.0681 37.8182 55.848 37.8182C54.6628 37.7832 53.4602 37.7657 52.2402 37.7657C50.8807 37.7657 49.6084 37.7832 48.4232 37.8182C47.238 37.8182 46.2794 37.8532 45.5474 37.9232V36.8727C46.7325 36.8027 47.6214 36.6626 48.214 36.4525C48.8415 36.2424 49.2598 35.8222 49.4689 35.1919C49.6781 34.5616 49.7827 33.6162 49.7827 32.3556V6.30303C49.7827 5.0074 49.6781 4.06195 49.4689 3.46666C49.2598 2.83636 48.8415 2.41616 48.214 2.20606C47.6214 1.96094 46.7325 1.82087 45.5474 1.78586V0.735352C46.2794 0.770368 47.238 0.805383 48.4232 0.840399C49.6084 0.875416 50.8807 0.892925 52.2402 0.892925C53.4602 0.892925 54.6628 0.875416 55.848 0.840399C57.0681 0.805383 58.079 0.770368 58.8807 0.735352Z" fill="#D17D2F"/>
<path d="M41.1503 0.735352V1.78586C39.9651 1.82087 39.0588 1.96094 38.4314 2.20606C37.8388 2.41616 37.4379 2.83636 37.2288 3.46666C37.0196 4.06195 36.915 5.0074 36.915 6.30303V32.3555C36.915 33.6162 37.0196 34.5616 37.2288 35.1919C37.4379 35.8222 37.8388 36.2424 38.4314 36.4525C39.0588 36.6626 39.9651 36.8027 41.1503 36.8727V37.9232C40.3486 37.8532 39.3377 37.8182 38.1176 37.8182C36.9325 37.7832 35.7298 37.7657 34.5098 37.7657C33.1503 37.7657 31.878 37.7832 30.6928 37.8182C29.5076 37.8182 28.549 37.8532 27.817 37.9232V36.8727C29.0022 36.8027 29.8911 36.6626 30.4837 36.4525C31.1111 36.2424 31.5294 35.8222 31.7386 35.1919C31.9477 34.5616 32.0523 33.6162 32.0523 32.3555V3.46666L32.2614 3.62424L19.451 38.1859H18.6144L5.43791 4.09696V31.8303C5.43791 33.0909 5.54248 34.0889 5.75163 34.8242C5.99564 35.5246 6.4488 36.0323 7.11111 36.3475C7.80828 36.6276 8.8366 36.8027 10.1961 36.8727V37.9232C9.56863 37.8532 8.74945 37.8182 7.73856 37.8182C6.72767 37.7832 5.76906 37.7657 4.86274 37.7657C3.99128 37.7657 3.1024 37.7832 2.19608 37.8182C1.32462 37.8182 0.592593 37.8532 0 37.9232V36.8727C1.18519 36.8027 2.07407 36.6276 2.66667 36.3475C3.29412 36.0323 3.71242 35.5246 3.92157 34.8242C4.13072 34.0889 4.23529 33.0909 4.23529 31.8303V6.30303C4.23529 5.0074 4.13072 4.06195 3.92157 3.46666C3.71242 2.83636 3.29412 2.41616 2.66667 2.20606C2.07407 1.96094 1.18519 1.82087 0 1.78586V0.735352C0.592593 0.770368 1.32462 0.805383 2.19608 0.840399C3.1024 0.875416 3.99128 0.892925 4.86274 0.892925C5.62963 0.892925 6.41394 0.875416 7.21569 0.840399C8.05229 0.805383 8.74945 0.770368 9.30719 0.735352L21.1765 32.1454L20.2876 32.5656L32.0523 0.892925C32.4706 0.892925 32.8715 0.892925 33.2549 0.892925C33.6732 0.892925 34.0915 0.892925 34.5098 0.892925C35.7298 0.892925 36.9325 0.875416 38.1176 0.840399C39.3377 0.805383 40.3486 0.770368 41.1503 0.735352Z" fill="#D17D2F"/>
<path d="M184.498 62.7929V48.1995H192.622V49.026H185.389V55.0758H192.187V55.9023H185.389V61.9663H192.793V62.7929H184.498Z" fill="#D17D2F"/>
<path d="M179.391 48.1995H180.282V57.8619C180.282 58.8548 180.051 59.7407 179.59 60.5198C179.13 61.2941 178.493 61.9069 177.681 62.3582C176.873 62.8048 175.944 63.028 174.895 63.028C173.85 63.028 172.921 62.8048 172.108 62.3582C171.296 61.9069 170.657 61.2918 170.192 60.5127C169.731 59.7336 169.503 58.85 169.508 57.8619V48.1995H170.398V57.812C170.398 58.6529 170.588 59.4011 170.968 60.0566C171.353 60.7122 171.883 61.23 172.557 61.61C173.232 61.9853 174.011 62.173 174.895 62.173C175.778 62.173 176.557 61.9853 177.232 61.61C177.906 61.23 178.434 60.7122 178.814 60.0566C179.199 59.4011 179.391 58.6529 179.391 57.812V48.1995Z" fill="#D17D2F"/>
<path d="M160.041 58.2325H161.067L163.191 61.0329L163.39 61.3037L165.542 64.1611H164.516L162.749 61.8167L162.564 61.5602L160.041 58.2325ZM166.027 55.4962C166.027 57.0021 165.765 58.318 165.243 59.4439C164.72 60.565 163.993 61.4367 163.062 62.059C162.136 62.6813 161.067 62.9925 159.856 62.9925C158.64 62.9925 157.566 62.6813 156.635 62.059C155.709 61.4319 154.984 60.5579 154.462 59.4368C153.939 58.3109 153.678 56.9974 153.678 55.4962C153.678 53.9903 153.939 52.6768 154.462 51.5557C154.989 50.4346 155.716 49.5629 156.642 48.9406C157.568 48.3135 158.64 48 159.856 48C161.067 48 162.136 48.3112 163.062 48.9335C163.993 49.5558 164.72 50.4299 165.243 51.5557C165.765 52.6768 166.027 53.9903 166.027 55.4962ZM165.157 55.4962C165.157 54.1424 164.929 52.969 164.473 51.9761C164.022 50.9833 163.397 50.2161 162.599 49.6745C161.801 49.1282 160.887 48.8551 159.856 48.8551C158.825 48.8551 157.911 49.1259 157.112 49.6674C156.314 50.2042 155.687 50.9714 155.231 51.969C154.78 52.9619 154.554 54.1376 154.554 55.4962C154.554 56.8406 154.778 58.0116 155.224 59.0092C155.675 60.0021 156.3 60.7716 157.098 61.3179C157.896 61.8642 158.815 62.1374 159.856 62.1374C160.887 62.1374 161.801 61.8666 162.599 61.3251C163.397 60.7788 164.022 60.0092 164.473 59.0163C164.929 58.0235 165.157 56.8501 165.157 55.4962Z" fill="#D17D2F"/>
<path d="M150.195 48.1995V62.7929H149.304V48.1995H150.195Z" fill="#D17D2F"/>
<path d="M135.833 49.026V48.1995H146.059V49.026H141.391V62.7929H140.501V49.026H135.833Z" fill="#D17D2F"/>
<path d="M131.695 48.1995H132.586V57.8619C132.586 58.8548 132.355 59.7407 131.894 60.5198C131.434 61.2941 130.797 61.9069 129.985 62.3582C129.177 62.8048 128.248 63.028 127.199 63.028C126.154 63.028 125.225 62.8048 124.412 62.3582C123.6 61.9069 122.961 61.2918 122.496 60.5127C122.035 59.7336 121.807 58.85 121.812 57.8619V48.1995H122.702V57.812C122.702 58.6529 122.892 59.4011 123.272 60.0566C123.657 60.7122 124.187 61.23 124.861 61.61C125.536 61.9853 126.315 62.173 127.199 62.173C128.082 62.173 128.861 61.9853 129.536 61.61C130.21 61.23 130.738 60.7122 131.118 60.0566C131.503 59.4011 131.695 58.6529 131.695 57.812V48.1995Z" fill="#D17D2F"/>
<path d="M118.331 55.4962C118.331 57.0021 118.07 58.318 117.547 59.4439C117.025 60.565 116.298 61.4367 115.367 62.059C114.44 62.6813 113.371 62.9925 112.16 62.9925C110.944 62.9925 109.87 62.6813 108.939 62.059C108.013 61.4319 107.288 60.5579 106.766 59.4368C106.243 58.3109 105.982 56.9974 105.982 55.4962C105.982 53.9903 106.243 52.6768 106.766 51.5557C107.293 50.4346 108.02 49.5629 108.946 48.9406C109.873 48.3135 110.944 48 112.16 48C113.371 48 114.44 48.3112 115.367 48.9335C116.298 49.5558 117.025 50.4299 117.547 51.5557C118.07 52.6768 118.331 53.9903 118.331 55.4962ZM117.462 55.4962C117.462 54.1424 117.234 52.969 116.777 51.9761C116.326 50.9833 115.702 50.2161 114.903 49.6745C114.105 49.1282 113.191 48.8551 112.16 48.8551C111.129 48.8551 110.215 49.1259 109.417 49.6674C108.619 50.2042 107.992 50.9714 107.535 51.969C107.084 52.9619 106.859 54.1376 106.859 55.4962C106.859 56.8406 107.082 58.0116 107.528 59.0092C107.98 60.0021 108.604 60.7716 109.402 61.3179C110.2 61.8642 111.12 62.1374 112.16 62.1374C113.191 62.1374 114.105 61.8666 114.903 61.3251C115.702 60.7788 116.326 60.0092 116.777 59.0163C117.234 58.0235 117.462 56.8501 117.462 55.4962Z" fill="#D17D2F"/>
<path d="M93.8094 62.7929V48.1995H98.548C99.4316 48.1995 100.177 48.3562 100.786 48.6698C101.394 48.9833 101.854 49.4227 102.168 49.988C102.486 50.5533 102.645 51.2113 102.645 51.9618C102.645 52.5509 102.55 53.0734 102.36 53.5295C102.17 53.9855 101.904 54.3632 101.562 54.6625C101.225 54.957 100.828 55.1613 100.372 55.2753V55.3608C100.876 55.3988 101.344 55.5746 101.776 55.8881C102.208 56.1969 102.555 56.6173 102.816 57.1493C103.082 57.6814 103.215 58.3013 103.215 59.0092C103.215 59.755 103.054 60.4129 102.731 60.983C102.413 61.5483 101.935 61.9924 101.299 62.3155C100.662 62.6338 99.8734 62.7929 98.9328 62.7929H93.8094ZM94.7002 61.9663H98.9328C100.03 61.9663 100.873 61.6908 101.462 61.1397C102.056 60.5887 102.353 59.8785 102.353 59.0092C102.353 58.3963 102.208 57.8477 101.918 57.3631C101.633 56.8786 101.237 56.4962 100.729 56.2159C100.22 55.9308 99.6311 55.7883 98.9613 55.7883H94.7002V61.9663ZM94.7002 54.976H98.8544C99.4768 54.976 100.004 54.8406 100.436 54.5698C100.873 54.2991 101.206 53.9357 101.434 53.4796C101.667 53.0236 101.783 52.5176 101.783 51.9618C101.783 51.0592 101.503 50.3443 100.942 49.817C100.382 49.2897 99.5836 49.026 98.548 49.026H94.7002V54.976Z" fill="#D17D2F"/>
<path d="M75.6638 62.7929V48.1995H80.1601C81.0817 48.1995 81.8751 48.38 82.5401 48.741C83.2052 49.1021 83.7159 49.6032 84.0721 50.2445C84.4284 50.8811 84.6066 51.6222 84.6066 52.4678C84.6066 53.3038 84.4284 54.0402 84.0721 54.6767C83.7159 55.3085 83.2052 55.8026 82.5401 56.1589C81.8798 56.5152 81.0889 56.6933 80.1673 56.6933H76.1412V55.8596H80.1459C80.8965 55.8596 81.5378 55.7195 82.0698 55.4392C82.6019 55.1589 83.0104 54.767 83.2954 54.2634C83.5805 53.7551 83.723 53.1566 83.723 52.4678C83.723 51.7742 83.5805 51.1709 83.2954 50.6578C83.0104 50.14 82.5995 49.7386 82.0627 49.4536C81.5306 49.1686 80.8893 49.026 80.1388 49.026H76.5545V62.7929H75.6638ZM81.6565 56.1802L85.2479 62.7929H84.2218L80.6518 56.1802H81.6565Z" fill="#D17D2F"/>
<path d="M63.8477 62.7929V48.1995H71.971V49.026H64.7384V55.0758H71.5363V55.9023H64.7384V61.9663H72.142V62.7929H63.8477Z" fill="#D17D2F"/>
<path d="M47.9877 62.7929L43.976 48.1995H44.9023L48.4651 61.4176H48.5507L52.0565 48.1995H53.1396L56.6455 61.4176H56.731L60.2938 48.1995H61.213L57.2013 62.7929H56.1752L52.6337 49.6602H52.5553L49.0138 62.7929H47.9877Z" fill="#D17D2F"/>
<path d="M42.0841 55.4962C42.0841 57.0021 41.8228 58.318 41.3002 59.4439C40.7777 60.565 40.0509 61.4367 39.1198 62.059C38.1934 62.6813 37.1246 62.9925 35.9132 62.9925C34.6971 62.9925 33.6235 62.6813 32.6924 62.059C31.7661 61.4319 31.0416 60.5579 30.5191 59.4368C29.9965 58.3109 29.7352 56.9974 29.7352 55.4962C29.7352 53.9903 29.9965 52.6768 30.5191 51.5557C31.0464 50.4346 31.7732 49.5629 32.6995 48.9406C33.6259 48.3135 34.6971 48 35.9132 48C37.1246 48 38.1934 48.3112 39.1198 48.9335C40.0509 49.5558 40.7777 50.4299 41.3002 51.5557C41.8228 52.6768 42.0841 53.9903 42.0841 55.4962ZM41.2147 55.4962C41.2147 54.1424 40.9867 52.969 40.5307 51.9761C40.0794 50.9833 39.4547 50.2161 38.6566 49.6745C37.8585 49.1282 36.9441 48.8551 35.9132 48.8551C34.8824 48.8551 33.9679 49.1259 33.1698 49.6674C32.3717 50.2042 31.7447 50.9714 31.2886 51.969C30.8373 52.9619 30.6117 54.1376 30.6117 55.4962C30.6117 56.8406 30.835 58.0116 31.2815 59.0092C31.7328 60.0021 32.3575 60.7716 33.1556 61.3179C33.9536 61.8642 34.8729 62.1374 35.9132 62.1374C36.9441 62.1374 37.8585 61.8666 38.6566 61.3251C39.4547 60.7788 40.0794 60.0092 40.5307 59.0163C40.9867 58.0235 41.2147 56.8501 41.2147 55.4962Z" fill="#D17D2F"/>
<path d="M19.7574 62.7929V48.1995H20.6482V61.9663H27.7739V62.7929H19.7574Z" fill="#D17D2F"/>
<path d="M8 62.7929V48.1995H16.1447V49.026H8.89071V55.0758H15.4677V55.9023H8.89071V62.7929H8Z" fill="#D17D2F"/>
</svg>
