<svg width="200" height="65" viewBox="0 0 200 65" fill="none" xmlns="http://www.w3.org/2000/svg">
<path d="M186.323 63.5293V48.2492H194.79V49.1147H187.251V55.449H194.337V56.3145H187.251V62.6638H194.968V63.5293H186.323Z" fill="#D17D2F"/>
<path d="M180.999 48.2492H181.928V58.3663C181.928 59.4058 181.688 60.3335 181.207 61.1492C180.727 61.96 180.064 62.6016 179.217 63.0742C178.375 63.5417 177.407 63.7755 176.313 63.7755C175.223 63.7755 174.255 63.5417 173.409 63.0742C172.562 62.6016 171.896 61.9575 171.411 61.1418C170.931 60.326 170.693 59.4009 170.698 58.3663V48.2492H171.626V58.3141C171.626 59.1945 171.824 59.9779 172.22 60.6643C172.621 61.3507 173.174 61.8928 173.877 62.2908C174.58 62.6837 175.392 62.8802 176.313 62.8802C177.234 62.8802 178.046 62.6837 178.749 62.2908C179.452 61.8928 180.002 61.3507 180.398 60.6643C180.799 59.9779 180.999 59.1945 180.999 58.3141V48.2492Z" fill="#D17D2F"/>
<path d="M160.831 58.7543H161.9L164.114 61.6865L164.322 61.97L166.565 64.9618H165.495L163.653 62.5072L163.46 62.2386L160.831 58.7543ZM167.07 55.8893C167.07 57.466 166.797 58.8438 166.253 60.0227C165.708 61.1965 164.95 62.1093 163.98 62.7608C163.014 63.4124 161.9 63.7382 160.638 63.7382C159.37 63.7382 158.251 63.4124 157.281 62.7608C156.315 62.1043 155.56 61.1891 155.015 60.0152C154.471 58.8364 154.198 57.4611 154.198 55.8893C154.198 54.3125 154.471 52.9372 155.015 51.7634C155.565 50.5895 156.322 49.6768 157.288 49.0252C158.253 48.3686 159.37 48.0403 160.638 48.0403C161.9 48.0403 163.014 48.3661 163.98 49.0177C164.95 49.6693 165.708 50.5845 166.253 51.7634C166.797 52.9372 167.07 54.3125 167.07 55.8893ZM166.163 55.8893C166.163 54.4717 165.926 53.2431 165.45 52.2036C164.98 51.164 164.329 50.3607 163.497 49.7937C162.665 49.2217 161.712 48.9357 160.638 48.9357C159.563 48.9357 158.61 49.2192 157.778 49.7862C156.946 50.3483 156.293 51.1516 155.817 52.1961C155.347 53.2357 155.112 54.4667 155.112 55.8893C155.112 57.2969 155.345 58.523 155.81 59.5676C156.28 60.6071 156.931 61.4129 157.763 61.9849C158.595 62.5569 159.553 62.8429 160.638 62.8429C161.712 62.8429 162.665 62.5594 163.497 61.9924C164.329 61.4204 164.98 60.6146 165.45 59.575C165.926 58.5354 166.163 57.3069 166.163 55.8893Z" fill="#D17D2F"/>
<path d="M150.568 48.2492V63.5293H149.64V48.2492H150.568Z" fill="#D17D2F"/>
<path d="M135.599 49.1147V48.2492H146.257V49.1147H141.392V63.5293H140.463V49.1147H135.599Z" fill="#D17D2F"/>
<path d="M124.293 63.5293V48.2492H132.76V49.1147H125.221V55.449H132.307V56.3145H125.221V62.6638H132.938V63.5293H124.293Z" fill="#D17D2F"/>
<path d="M118.969 48.2492H119.898V58.3663C119.898 59.4058 119.657 60.3335 119.177 61.1492C118.697 61.96 118.033 62.6016 117.187 63.0742C116.345 63.5417 115.377 63.7755 114.283 63.7755C113.193 63.7755 112.225 63.5417 111.379 63.0742C110.532 62.6016 109.866 61.9575 109.381 61.1418C108.9 60.326 108.663 59.4009 108.668 58.3663V48.2492H109.596V58.3141C109.596 59.1945 109.794 59.9779 110.19 60.6643C110.591 61.3507 111.143 61.8928 111.847 62.2908C112.55 62.6837 113.362 62.8802 114.283 62.8802C115.204 62.8802 116.016 62.6837 116.719 62.2908C117.422 61.8928 117.972 61.3507 118.368 60.6643C118.769 59.9779 118.969 59.1945 118.969 58.3141V48.2492Z" fill="#D17D2F"/>
<path d="M95.2076 63.5293V48.2492H100.147C101.068 48.2492 101.845 48.4133 102.479 48.7416C103.113 49.0699 103.593 49.53 103.92 50.1219C104.252 50.7138 104.417 51.4027 104.417 52.1886C104.417 52.8054 104.318 53.3525 104.12 53.83C103.922 54.3075 103.645 54.7029 103.288 55.0163C102.937 55.3247 102.523 55.5386 102.048 55.658V55.7475C102.573 55.7873 103.061 55.9713 103.511 56.2996C103.962 56.6229 104.323 57.0631 104.596 57.6202C104.873 58.1773 105.012 58.8264 105.012 59.5675C105.012 60.3484 104.843 61.0373 104.507 61.6342C104.175 62.2261 103.677 62.6912 103.014 63.0294C102.35 63.3627 101.528 63.5293 100.548 63.5293H95.2076ZM96.136 62.6638H100.548C101.692 62.6638 102.57 62.3753 103.184 61.7983C103.803 61.2214 104.113 60.4777 104.113 59.5675C104.113 58.9259 103.962 58.3514 103.66 57.844C103.363 57.3367 102.949 56.9363 102.419 56.6428C101.89 56.3444 101.276 56.1951 100.578 56.1951H96.136V62.6638ZM96.136 55.3446H100.466C101.115 55.3446 101.664 55.2028 102.115 54.9193C102.57 54.6358 102.917 54.2553 103.155 53.7778C103.397 53.3003 103.519 52.7706 103.519 52.1886C103.519 51.2435 103.227 50.495 102.642 49.9428C102.058 49.3907 101.226 49.1147 100.147 49.1147H96.136V55.3446Z" fill="#D17D2F"/>
<path d="M76.2943 63.5293V48.2492H80.9809C81.9415 48.2492 82.7684 48.4382 83.4616 48.8162C84.1548 49.1943 84.6871 49.719 85.0584 50.3905C85.4298 51.057 85.6155 51.833 85.6155 52.7183C85.6155 53.5937 85.4298 54.3647 85.0584 55.0312C84.6871 55.6928 84.1548 56.2101 83.4616 56.5831C82.7733 56.9562 81.9489 57.1427 80.9883 57.1427H76.7919V56.2698H80.966C81.7484 56.2698 82.4168 56.123 82.9714 55.8296C83.5259 55.5361 83.9518 55.1257 84.2489 54.5985C84.5459 54.0663 84.6945 53.4396 84.6945 52.7183C84.6945 51.9921 84.5459 51.3604 84.2489 50.8232C83.9518 50.2811 83.5235 49.8608 82.9639 49.5623C82.4094 49.2639 81.7409 49.1147 80.9586 49.1147H77.2227V63.5293H76.2943ZM82.5406 56.6055L86.2839 63.5293H85.2144L81.4934 56.6055H82.5406Z" fill="#D17D2F"/>
<path d="M63.978 63.5293V48.2492H72.4451V49.1147H64.9064V55.449H71.992V56.3145H64.9064V62.6638H72.6233V63.5293H63.978Z" fill="#D17D2F"/>
<path d="M47.4469 63.5293L43.2654 48.2492H44.2309L47.9445 62.0893H48.0337L51.6878 48.2492H52.8168L56.471 62.0893H56.5601L60.2737 48.2492H61.2318L57.0503 63.5293H55.9808L52.2894 49.7787H52.2077L48.5164 63.5293H47.4469Z" fill="#D17D2F"/>
<path d="M41.2935 55.8893C41.2935 57.466 41.0211 58.8438 40.4765 60.0227C39.9318 61.1965 39.1742 62.1093 38.2038 62.7608C37.2382 63.4124 36.1241 63.7382 34.8615 63.7382C33.5939 63.7382 32.4749 63.4124 31.5044 62.7608C30.5389 62.1043 29.7838 61.1891 29.2391 60.0152C28.6945 58.8364 28.4221 57.4611 28.4221 55.8893C28.4221 54.3125 28.6945 52.9372 29.2391 51.7634C29.7887 50.5895 30.5463 49.6768 31.5118 49.0252C32.4774 48.3686 33.5939 48.0403 34.8615 48.0403C36.1241 48.0403 37.2382 48.3661 38.2038 49.0177C39.1742 49.6693 39.9318 50.5845 40.4765 51.7634C41.0211 52.9372 41.2935 54.3125 41.2935 55.8893ZM40.3874 55.8893C40.3874 54.4717 40.1497 53.2431 39.6743 52.2036C39.204 51.164 38.5528 50.3607 37.721 49.7937C36.8891 49.2217 35.936 48.9357 34.8615 48.9357C33.787 48.9357 32.8339 49.2192 32.002 49.7862C31.1702 50.3483 30.5166 51.1516 30.0413 52.1961C29.5709 53.2357 29.3357 54.4667 29.3357 55.8893C29.3357 57.2969 29.5684 58.523 30.0338 59.5676C30.5042 60.6071 31.1553 61.4129 31.9872 61.9849C32.819 62.5569 33.7771 62.8429 34.8615 62.8429C35.936 62.8429 36.8891 62.5594 37.721 61.9924C38.5528 61.4204 39.204 60.6146 39.6743 59.575C40.1497 58.5354 40.3874 57.3069 40.3874 55.8893Z" fill="#D17D2F"/>
<path d="M18.0222 63.5293V48.2492H18.9506V62.6638H26.3778V63.5293H18.0222Z" fill="#D17D2F"/>
<path d="M5.76733 63.5293V48.2492H14.2566V49.1147H6.69574V55.449H13.5511V56.3145H6.69574V63.5293H5.76733Z" fill="#D17D2F"/>
<path d="M182.848 0C186.16 0 189.053 0.752865 191.528 2.25859C194.038 3.76431 195.972 5.93536 197.332 8.77172C198.726 11.5731 199.423 14.9872 199.423 19.0141C199.423 22.936 198.709 26.3677 197.279 29.3091C195.885 32.2505 193.933 34.5441 191.423 36.1899C188.913 37.8357 186.038 38.6586 182.796 38.6586C179.484 38.6586 176.574 37.9057 174.064 36.4C171.589 34.8943 169.654 32.7232 168.26 29.8869C166.9 27.0505 166.221 23.6364 166.221 19.6444C166.221 15.7226 166.935 12.2909 168.364 9.3495C169.794 6.40808 171.746 4.11448 174.221 2.46869C176.73 0.822898 179.606 0 182.848 0ZM182.639 0.945456C180.373 0.945456 178.404 1.73334 176.73 3.30909C175.057 4.88485 173.75 7.05589 172.809 9.82222C171.903 12.5886 171.449 15.7926 171.449 19.4343C171.449 23.1461 171.955 26.3852 172.966 29.1515C174.011 31.8828 175.406 34.0014 177.149 35.5071C178.926 36.9778 180.879 37.7131 183.005 37.7131C185.271 37.7131 187.24 36.9253 188.913 35.3495C190.587 33.7737 191.876 31.6027 192.783 28.8364C193.724 26.035 194.194 22.831 194.194 19.2242C194.194 15.4774 193.672 12.2384 192.626 9.50708C191.615 6.77576 190.238 4.67475 188.495 3.20404C186.752 1.69832 184.8 0.945456 182.639 0.945456Z" fill="#D17D2F"/>
<path d="M161.922 0.735352V1.78586C160.736 1.82087 159.83 1.99596 159.203 2.31111C158.61 2.62626 158.209 3.134 158 3.83434C157.791 4.53468 157.686 5.53266 157.686 6.82828V38.1859C157.477 38.1859 157.268 38.1859 157.059 38.1859C156.885 38.1859 156.693 38.1859 156.484 38.1859L134.523 4.09696V31.8303C134.523 33.0909 134.627 34.0889 134.837 34.8242C135.081 35.5246 135.534 36.0323 136.196 36.3475C136.893 36.6276 137.922 36.8027 139.281 36.8727V37.9232C138.654 37.8532 137.834 37.8182 136.824 37.8182C135.813 37.7832 134.854 37.7657 133.948 37.7657C133.076 37.7657 132.187 37.7832 131.281 37.8182C130.41 37.8182 129.678 37.8532 129.085 37.9232V36.8727C130.27 36.8027 131.159 36.6276 131.752 36.3475C132.379 36.0323 132.797 35.5246 133.007 34.8242C133.216 34.0889 133.32 33.0909 133.32 31.8303V6.30303C133.32 5.0074 133.216 4.06195 133.007 3.46666C132.797 2.83636 132.379 2.41616 131.752 2.20606C131.159 1.96094 130.27 1.82087 129.085 1.78586V0.735352C129.678 0.770368 130.41 0.805383 131.281 0.840399C132.187 0.875416 133.076 0.892925 133.948 0.892925C134.715 0.892925 135.447 0.875416 136.144 0.840399C136.841 0.805383 137.468 0.770368 138.026 0.735352L156.484 29.3091V6.82828C156.484 5.53266 156.362 4.53468 156.118 3.83434C155.908 3.134 155.455 2.62626 154.758 2.31111C154.096 1.99596 153.085 1.82087 151.725 1.78586V0.735352C152.353 0.770368 153.172 0.805383 154.183 0.840399C155.229 0.875416 156.187 0.892925 157.059 0.892925C157.965 0.892925 158.854 0.875416 159.725 0.840399C160.632 0.805383 161.364 0.770368 161.922 0.735352Z" fill="#D17D2F"/>
<path d="M111.864 0.472717L124.622 33.5111C125.145 34.8417 125.738 35.7347 126.4 36.1899C127.062 36.6101 127.672 36.8377 128.23 36.8727V37.9232C127.533 37.8532 126.679 37.8182 125.668 37.8182C124.657 37.7832 123.646 37.7657 122.635 37.7657C121.276 37.7657 120.003 37.7832 118.818 37.8182C117.633 37.8182 116.674 37.8532 115.942 37.9232V36.8727C117.72 36.8027 118.853 36.505 119.341 35.9798C119.829 35.4195 119.725 34.2465 119.027 32.4606L109.302 6.35555L110.139 5.67272L101.041 29.4141C100.483 30.8148 100.152 32.0054 100.047 32.9859C99.9425 33.9313 100.03 34.6842 100.308 35.2444C100.622 35.8047 101.128 36.2074 101.825 36.4525C102.557 36.6976 103.463 36.8377 104.544 36.8727V37.9232C103.568 37.8532 102.539 37.8182 101.459 37.8182C100.413 37.7832 99.437 37.7657 98.5307 37.7657C97.6592 37.7657 96.9098 37.7832 96.2823 37.8182C95.6897 37.8182 95.132 37.8532 94.6091 37.9232V36.8727C95.3063 36.6976 96.0209 36.2949 96.7529 35.6646C97.4849 34.9993 98.1473 33.8788 98.7398 32.303L111.027 0.472717C111.167 0.472717 111.306 0.472717 111.446 0.472717C111.585 0.472717 111.725 0.472717 111.864 0.472717ZM118.243 22.796V23.8465H102.661L103.184 22.796H118.243Z" fill="#D17D2F"/>
<path d="M63.2659 0.735352C63.9979 0.770368 64.9565 0.805383 66.1417 0.840399C67.3269 0.875416 68.4946 0.892925 69.645 0.892925C71.2833 0.892925 72.8519 0.875416 74.3508 0.840399C75.8497 0.805383 76.9129 0.787876 77.5404 0.787876C80.3639 0.787876 82.6994 1.19057 84.5469 1.99596C86.4293 2.80134 87.8236 3.90437 88.7299 5.30505C89.6711 6.6707 90.1417 8.21144 90.1417 9.92727C90.1417 10.9778 89.9325 12.0983 89.5142 13.2889C89.0959 14.4795 88.3639 15.6 87.3182 16.6505C86.3073 17.701 84.9129 18.5764 83.1351 19.2768C81.3574 19.9421 79.109 20.2747 76.3901 20.2747H71.3704V19.2242H75.8672C78.3421 19.2242 80.2245 18.8391 81.5142 18.0687C82.8389 17.2633 83.7277 16.2128 84.1809 14.9172C84.6689 13.5865 84.9129 12.1158 84.9129 10.505C84.9129 7.73872 84.2506 5.60269 82.926 4.09696C81.6362 2.55622 79.4053 1.78586 76.2332 1.78586C74.6297 1.78586 73.584 2.0835 73.0959 2.67879C72.6079 3.27407 72.3639 4.48215 72.3639 6.30303V32.3556C72.3639 33.6162 72.4685 34.5616 72.6776 35.1919C72.8868 35.8222 73.2877 36.2424 73.8802 36.4525C74.5077 36.6626 75.414 36.8027 76.5992 36.8727V37.9232C75.7975 37.8532 74.7866 37.8182 73.5665 37.8182C72.3813 37.7832 71.1787 37.7657 69.9587 37.7657C68.5992 37.7657 67.3269 37.7832 66.1417 37.8182C64.9565 37.8182 63.9979 37.8532 63.2659 37.9232V36.8727C64.4511 36.8027 65.3399 36.6626 65.9325 36.4525C66.56 36.2424 66.9783 35.8222 67.1874 35.1919C67.3966 34.5616 67.5012 33.6162 67.5012 32.3556V6.30303C67.5012 5.0074 67.3966 4.06195 67.1874 3.46666C66.9783 2.83636 66.56 2.41616 65.9325 2.20606C65.3399 1.96094 64.4511 1.82087 63.2659 1.78586V0.735352ZM71.5796 19.3818C73.4619 19.4518 74.9434 19.5394 76.024 19.6444C77.1047 19.7145 77.9761 19.7845 78.6384 19.8545C79.3356 19.9246 79.9979 20.0121 80.6253 20.1172C82.9609 20.5024 84.6341 21.2202 85.645 22.2707C86.6907 23.2862 87.4576 24.8795 87.9456 27.0505L89.2528 32.4081C89.6014 33.9488 89.95 35.0694 90.2985 35.7697C90.682 36.435 91.2572 36.7502 92.024 36.7152C92.6166 36.6801 93.1047 36.4875 93.4881 36.1374C93.9064 35.7872 94.3421 35.3145 94.7953 34.7192L95.5796 35.297C94.8476 36.3825 94.0807 37.2229 93.2789 37.8182C92.5121 38.3784 91.414 38.6586 89.9848 38.6586C88.6951 38.6586 87.5622 38.2734 86.5861 37.503C85.6101 36.7327 84.8781 35.2269 84.3901 32.9859L83.2397 27.7333C82.926 26.2276 82.56 24.932 82.1417 23.8465C81.7582 22.7259 81.2005 21.8505 80.4685 21.2202C79.7713 20.5899 78.7256 20.2747 77.3312 20.2747H71.6842L71.5796 19.3818Z" fill="#D17D2F"/>
<path d="M58.8807 0.735352V1.78586C57.6955 1.82087 56.7892 1.96094 56.1617 2.20606C55.5691 2.41616 55.1683 2.83636 54.9591 3.46666C54.75 4.06195 54.6454 5.0074 54.6454 6.30303V32.3556C54.6454 33.6162 54.75 34.5616 54.9591 35.1919C55.1683 35.8222 55.5691 36.2424 56.1617 36.4525C56.7892 36.6626 57.6955 36.8027 58.8807 36.8727V37.9232C58.079 37.8532 57.0681 37.8182 55.848 37.8182C54.6628 37.7832 53.4602 37.7657 52.2402 37.7657C50.8807 37.7657 49.6084 37.7832 48.4232 37.8182C47.238 37.8182 46.2794 37.8532 45.5474 37.9232V36.8727C46.7325 36.8027 47.6214 36.6626 48.214 36.4525C48.8415 36.2424 49.2598 35.8222 49.4689 35.1919C49.6781 34.5616 49.7827 33.6162 49.7827 32.3556V6.30303C49.7827 5.0074 49.6781 4.06195 49.4689 3.46666C49.2598 2.83636 48.8415 2.41616 48.214 2.20606C47.6214 1.96094 46.7325 1.82087 45.5474 1.78586V0.735352C46.2794 0.770368 47.238 0.805383 48.4232 0.840399C49.6084 0.875416 50.8807 0.892925 52.2402 0.892925C53.4602 0.892925 54.6628 0.875416 55.848 0.840399C57.0681 0.805383 58.079 0.770368 58.8807 0.735352Z" fill="#D17D2F"/>
<path d="M41.1503 0.735352V1.78586C39.9651 1.82087 39.0588 1.96094 38.4314 2.20606C37.8388 2.41616 37.4379 2.83636 37.2288 3.46666C37.0196 4.06195 36.915 5.0074 36.915 6.30303V32.3555C36.915 33.6162 37.0196 34.5616 37.2288 35.1919C37.4379 35.8222 37.8388 36.2424 38.4314 36.4525C39.0588 36.6626 39.9651 36.8027 41.1503 36.8727V37.9232C40.3486 37.8532 39.3377 37.8182 38.1176 37.8182C36.9325 37.7832 35.7298 37.7657 34.5098 37.7657C33.1503 37.7657 31.878 37.7832 30.6928 37.8182C29.5076 37.8182 28.549 37.8532 27.817 37.9232V36.8727C29.0022 36.8027 29.8911 36.6626 30.4837 36.4525C31.1111 36.2424 31.5294 35.8222 31.7386 35.1919C31.9477 34.5616 32.0523 33.6162 32.0523 32.3555V3.46666L32.2614 3.62424L19.451 38.1859H18.6144L5.43791 4.09696V31.8303C5.43791 33.0909 5.54248 34.0889 5.75163 34.8242C5.99564 35.5246 6.4488 36.0323 7.11111 36.3475C7.80828 36.6276 8.8366 36.8027 10.1961 36.8727V37.9232C9.56863 37.8532 8.74945 37.8182 7.73856 37.8182C6.72767 37.7832 5.76906 37.7657 4.86274 37.7657C3.99128 37.7657 3.1024 37.7832 2.19608 37.8182C1.32462 37.8182 0.592593 37.8532 0 37.9232V36.8727C1.18519 36.8027 2.07407 36.6276 2.66667 36.3475C3.29412 36.0323 3.71242 35.5246 3.92157 34.8242C4.13072 34.0889 4.23529 33.0909 4.23529 31.8303V6.30303C4.23529 5.0074 4.13072 4.06195 3.92157 3.46666C3.71242 2.83636 3.29412 2.41616 2.66667 2.20606C2.07407 1.96094 1.18519 1.82087 0 1.78586V0.735352C0.592593 0.770368 1.32462 0.805383 2.19608 0.840399C3.1024 0.875416 3.99128 0.892925 4.86274 0.892925C5.62963 0.892925 6.41394 0.875416 7.21569 0.840399C8.05229 0.805383 8.74945 0.770368 9.30719 0.735352L21.1765 32.1454L20.2876 32.5656L32.0523 0.892925C32.4706 0.892925 32.8715 0.892925 33.2549 0.892925C33.6732 0.892925 34.0915 0.892925 34.5098 0.892925C35.7298 0.892925 36.9325 0.875416 38.1176 0.840399C39.3377 0.805383 40.3486 0.770368 41.1503 0.735352Z" fill="#D17D2F"/>
</svg>
